<svg width="328" height="271" fill="none" xmlns="http://www.w3.org/2000/svg"><path d="M121.166 109.182s-11.153-1.993-14.277 5.862c-3.125 7.855 0 34.981 0 34.981l41.611 29.931-27.334-70.774Z" fill="#3F3D56"/><path d="m174.217 229.865-16.801 4.906c-2.441.706-5.001-.666-5.728-3.07-.716-2.407.676-4.932 3.114-5.649l16.777-4.91c2.44-.707 5 .663 5.728 3.066.725 2.403-.657 4.931-3.09 5.657Z" fill="#2BD0D0"/><circle cx="173" cy="239.456" r="7.5" fill="#25233A"/><circle cx="172" cy="241.456" r="3.5" fill="#3F3D56"/><circle cx="143" cy="232.456" r="7.5" fill="#25233A"/><path d="M145.5 232.456a3.5 3.5 0 1 1-7 0 3.5 3.5 0 0 1 7 0Z" fill="url(#a)"/><circle cx="141" cy="242.456" r="7.5" fill="#25233A"/><path d="M146.5 242.456a3.5 3.5 0 1 1-7 0 3.5 3.5 0 0 1 7 0Z" fill="#3F3D56"/><path d="m175.182 236.869-34.122-6.989c-2.402-.499-3.954-2.873-3.473-5.312.492-2.435 2.829-4.009 5.231-3.524l34.122 6.975c2.402.499 3.954 2.874 3.473 5.313-.486 2.44-2.825 4.022-5.231 3.537Z" fill="#2BD0D0"/><path d="M154.5 181.956h9v40.227c0 2.636-2.014 4.773-4.498 4.773-2.484 0-4.498-2.137-4.498-4.773v-40.227h-.004Z" fill="#2BD0D0"/><path d="m157.207 233.852-16.789 4.917c-2.441.71-5.004-.664-5.73-3.072-.716-2.408.675-4.934 3.112-5.651l16.789-4.904c2.438-.707 4.997.664 5.725 3.067.711 2.404-.677 4.924-3.107 5.643Z" fill="#2BD0D0"/><path d="m160.5 234.216-2.083.551a5.778 5.778 0 0 1-1.917.172l.87-.227a5.36 5.36 0 0 0 1.672-.756l1.458.26Z" fill="url(#b)"/><path d="M177.5 224.244a4.215 4.215 0 0 1-.995 2.712l-14.005-2.768a4.39 4.39 0 0 0 .749-1.567l8.627-2.496a4.492 4.492 0 0 1 3.35.368 4.32 4.32 0 0 1 2.102 2.576c.112.382.17.778.172 1.175Z" fill="url(#c)"/><path opacity=".31" d="M153.647 223.338a3.916 3.916 0 0 1-.147-1.062v-39.32h3.962v42.376c-.039.208-.026.42.038.624a6.125 6.125 0 0 0-1.896-.343 11.851 11.851 0 0 0-1.385 0l.284-.067c.174-.027-.627-1.405-.856-2.208Z" fill="url(#d)"/><path opacity=".31" d="M178.022 235.992a4.31 4.31 0 0 1-2.13.561 4.48 4.48 0 0 1-.893-.091l-15.055-3.111-1.254-.256c-.429.338-.915.59-1.433.745l-.746.224-15.47 4.705c-2.361.711-4.839-.666-5.541-3.079a3.747 3.747 0 0 0 4.853.283c1.889-1.338 9.407-3.348 13.667-4.417 2.013-.492 3.553-2.152 3.929-4.234.01-.123.028-.245.053-.366.71.786 2.014 1.667 4.371 2.417 5.804 1.827 15.229 3.037 15.229 3.037s1.701 1.709.42 3.582Z" fill="url(#e)"/><path d="M179.5 234.956a3.804 3.804 0 0 1-1 1c.269-.26.614-.607 1-1Z" fill="url(#f)"/><path d="M154.366 223.42c.185.81.576 1.557 1.134 2.166a5.212 5.212 0 0 0-.427.106l-14.181 4.264c-2.181-.562-3.617-2.675-3.363-4.947.254-2.271 2.121-4.002 4.371-4.053.302.001.603.032.9.092l11.566 2.372Z" fill="url(#g)"/><path d="M175.5 32.78s-.186-14.065-11.469-12.852c-11.282 1.213-10.417-3.444-15.237-2.932-4.819.511-10.417 5.263-8.809 11.133 1.608 5.87-4.254 7.182-8.104 11.635-3.85 4.453.906 8.096 7.392 12.45 6.487 4.354-.403 3.227 3.443 10.11 3.845 6.883 16.863-1.91 16.863-1.91L175.5 32.781Z" fill="#503164"/><path d="m83.34 266.686 7.95.27v-63.612s.401-16.45 15.898-18.1c15.497-1.65 156.044-22.031 156.044-22.031s5.571-.59 8.779 10.112 6.331 52.784 6.331 52.784l43.139 5.82s1.139-74.337-14.439-78.439c-15.579-4.103-219.306 16.801-219.306 16.801s-15.11 78.953-4.397 96.395Z" fill="#2BD0D0"/><path opacity=".197" d="m83.34 266.686 7.95.27v-63.612s.401-16.45 15.898-18.1c15.497-1.65 156.044-22.031 156.044-22.031s5.571-.59 8.779 10.112 6.331 52.784 6.331 52.784l43.139 5.82s1.139-74.337-14.439-78.439c-15.579-4.103-219.306 16.801-219.306 16.801s-15.11 78.953-4.397 96.395Z" fill="url(#h)"/><path d="M42.5 177.435s3.898-21.588 31.312-27.246l193.517-22.191s18.998-.788 27.689 4.478c8.691 5.266 21.095 9.631 26.181 33.462 5.086 23.831 6.301 64.542 6.301 64.542l-4.811.748s-7.022-73.718-14.461-78.385c-7.44-4.668-208.595 23.966-208.595 23.966s-13.952 2.779-15.167 23.475c-1.216 20.695 0 65.672 0 65.672L42.5 249v-71.565Z" fill="#2BD0D0"/><path opacity=".19" d="M242.079 136.874c-10.029-1.281-20.14-2.209-30.246-1.834-7.595.292-15.141 1.326-22.673 2.356l-66.427 9.106c-1.127.155-2.412.407-2.975 1.379-1.082 1.856 1.46 3.685 3.52 4.392 22.087 7.591 45.684 15.279 68.42 9.866 10.394-2.474 20.05-7.613 30.593-9.398 10.543-1.785 21.365-.141 31.886-1.825 9.89-1.582 19.306-6.075 29.331-6.119 3.074 0 6.238.388 9.154-.566 2.917-.954 5.495-3.871 4.688-6.778-9.412-.323-19.977-2.028-29.209-.177-9.136 1.829-16.912-.402-26.062-.402Z" fill="url(#i)"/><path d="m181.5 147.543.384 1.409s11.381 6.782 11.309 7.001c-.071.218 47.207-10.826 47.207-10.826l1.1-3.171-60 5.587Z" fill="#2BD0D0"/><path d="m181.5 147.543.384 1.409s11.381 6.782 11.309 7.001c-.071.218 47.207-10.826 47.207-10.826l1.1-3.171-60 5.587Z" fill="url(#j)"/><path d="m182.5 148.068 42.345-9.112 17.655 3.446-48.107 11.554-11.893-5.888Z" fill="#2BD0D0"/><path d="m182.5 148.068 42.345-9.112 17.655 3.446-48.107 11.554-11.893-5.888Z" fill="url(#k)"/><path d="m168.721 155.612 9.638.341s2.448.153 3.081-1.811c.633-1.963-3.927-6.106-4.416-6.185-.488-.078-13.172 3.48-11.344 7.038l3.041.617Z" fill="#2BD0D0"/><path d="m168.721 155.612 9.638.341s2.448.153 3.081-1.811c.633-1.963-3.927-6.106-4.416-6.185-.488-.078-13.172 3.48-11.344 7.038l3.041.617Z" fill="url(#l)"/><path d="m54.5 253.687-4.8 15.007c-13.921 5.09-25.758 0-25.758 0L20.5 252.956s17.364 5.927 34 .731Z" fill="#2BD0D0"/><path d="m54.5 253.687-4.8 15.007c-13.921 5.09-25.758 0-25.758 0L20.5 252.956s17.364 5.927 34 .731Z" fill="url(#m)"/><path d="m59.5 239.956-1.546 11.787-3.917 2.092c-16.685 5.162-34.127-.722-34.127-.722l-3.007-2.284-1.403-10.873h44Z" fill="#2BD0D0"/><path d="m59.5 239.956-1.546 11.787-3.917 2.092c-16.685 5.162-34.127-.722-34.127-.722l-3.007-2.284-1.403-10.873h44Z" fill="url(#n)"/><ellipse cx="37.5" cy="239.956" rx="22" ry="4" fill="#2BD0D0"/><ellipse cx="37.5" cy="239.956" rx="22" ry="4" fill="url(#o)"/><path d="M27.662 151.866c-2.181-1.03-4.525-1.808-6.411-3.313-3.8-3.06-4.764-8.331-5.954-13.059-1.19-4.728-3.493-9.926-8.185-11.282-1.755-.502-3.814-.303-5.148.944-1.407 1.316-1.692 3.476-1.308 5.384.385 1.907 1.321 3.616 2.045 5.424a24.92 24.92 0 0 1 1.489 13.249c-.593 3.666-2.01 7.381-1.1 10.975 1.543 6.098 9.23 9.673 9.443 15.956.144 4.24-3.348 8.164-2.557 12.336.584 3.088 3.43 5.497 3.583 8.634.172 3.557-3.194 6.568-3.03 10.125.162 3.558 3.718 5.935 6.04 8.733a14.536 14.536 0 0 1 3.306 8.295c.122 1.898-.122 3.865.498 5.664.453 1.315 1.357 2.432 2.059 3.616.773 1.279 1.357 2.662 2.289 3.847a9.424 9.424 0 0 0 10.089 3.164c.72-4.728.09-9.551.29-14.329.393-9.258 3.9-18.587 1.655-27.574-.823-3.295-2.407-6.423-2.687-9.804-.249-3.02.556-6.012 1.117-8.991 1.159-6.152 1.14-12.512.666-18.732-.376-4.936-3.85-7.21-8.19-9.262Z" fill="#2BD0D0"/><path d="M40.727 176.135c-.036 4.123.894 8.387-.412 12.302-.987 2.967-3.16 5.397-4.282 8.314-2.588 6.734.894 14.285.184 21.475-.295 2.962-1.301 5.807-1.936 8.716a35.262 35.262 0 0 0-.572 11.213 2.831 2.831 0 0 0 2.235 2.954 34.583 34.583 0 0 0 6.772 1.847 18.304 18.304 0 0 1 2.315-12.645c3.545-5.871 10.433-9.827 11.716-16.57.867-4.566-1.154-9.199-1.01-13.846a14.999 14.999 0 0 1 3.012-8.536c1.667-2.195 3.925-3.893 5.476-6.169 3.728-5.487 2.566-12.821 1.457-19.383-1.109-6.562-1.752-14.113 2.628-19.086 1.386-1.571 3.192-2.75 4.448-4.43 2.798-3.744 2.092-9.511-1.162-12.858-3.254-3.346-8.493-4.272-12.918-2.8a9.311 9.311 0 0 0-4.712 3.239c-2.235 3.206-1.34 7.587-.393 11.398.827 3.311 1.493 7.131.362 10.469-.845 2.484-2.986 3.829-4.805 5.559-5.21 4.871-8.242 11.668-8.403 18.837Z" fill="#2BD0D0"/><path d="M36.858 212.742c-.643 4.484-1.571 9.005-1.761 13.503v.452c-.01.112-.036.221-.077.326a34.91 34.91 0 0 0-.593 11.225c.025.607.179 1.202.453 1.745-.023.19-.05.375-.077.565a9.428 9.428 0 0 1-10.093-3.165c-.905-1.184-1.516-2.568-2.29-3.847-.724-1.189-1.606-2.305-2.059-3.616-.62-1.809-.375-3.766-.498-5.665a14.538 14.538 0 0 0-3.308-8.296c-2.322-2.78-5.883-5.113-6.042-8.729-.158-3.617 3.204-6.569 3.033-10.127-.154-3.137-3.001-5.547-3.585-8.634-.792-4.173 2.716-8.097 2.557-12.337-.213-6.284-7.902-9.86-9.445-15.959-.905-3.594.507-7.31 1.1-10.976.72-4.464.211-9.039-1.471-13.237-.724-1.808-1.661-3.513-2.046-5.425-.384-1.912-.1-4.069 1.308-5.389 1.358-1.247 3.395-1.446 5.15-.944 4.698 1.356 6.993 6.573 8.188 11.301 1.194 4.729 2.154 9.996 5.955 13.061 1.878 1.514 4.232 2.283 6.413 3.314 4.345 2.052 7.82 4.326 8.192 9.217.452 6.221.493 12.582-.666 18.734-.56 2.98-1.357 5.972-1.117 8.992.24 3.02 1.556 5.877 2.416 8.807.095.33.19.664.272.999 1.14 4.652.774 9.358.09 14.105Z" fill="#30C59B"/><path d="M34.218 238.956a3.918 3.918 0 0 1-.502-1.702 31.625 31.625 0 0 1 .636-10.979c.025-.107.053-.213.082-.319-.172 4.342.373 8.72-.215 13Z" fill="url(#p)"/><path d="M72.748 142.291c-1.258 1.68-3.067 2.859-4.455 4.43-4.387 4.968-3.742 12.524-2.632 19.086 1.11 6.562 2.274 13.896-1.46 19.383-1.553 2.258-3.813 3.974-5.483 6.169a14.983 14.983 0 0 0-3.018 8.536c-.143 4.647 1.88 9.28 1.012 13.846-1.285 6.743-8.183 10.708-11.733 16.57a18.307 18.307 0 0 0-2.301 12.645 34.504 34.504 0 0 1-6.765-1.847 3.632 3.632 0 0 1-1.576-.962 1.668 1.668 0 0 1-.165-.235 4.276 4.276 0 0 1-.47-1.734 35.213 35.213 0 0 1 .595-11.214c.023-.108.05-.216.076-.325.636-2.795 1.576-5.537 1.863-8.391.152-1.85.116-3.712-.108-5.555.676-4.742 1.039-9.443-.103-14.058-.08-.335-.174-.669-.268-.998.085-.29.183-.579.295-.863 1.124-2.918 3.3-5.347 4.289-8.314 1.303-3.916.376-8.179.412-12.302.058-7.122 3.24-14 8.353-18.86 1.822-1.73 3.967-3.075 4.813-5.559 1.132-3.338.447-7.158-.363-10.469-.953-3.811-1.858-8.192.394-11.398 1.12-1.59 2.883-2.624 4.718-3.239 4.415-1.472 9.684-.546 12.938 2.8 3.255 3.347 3.944 9.137 1.142 12.858Z" fill="#30C59B"/><path d="M153.329 71.41s-18.801 2.912-27.497 23.685c-8.697 20.773-4.174 46.51-4.022 48.774.152 2.264 26.648 12.087 34.222 12.087 7.575 0 9.153-7.604 9.153-7.604l-13.385-5.71 40.667-4.706h7.302l-4.022 6.793s7.937.834 13.241 1.024c5.305.19 8.907-10.321 9.501-15.547.595-5.226-23.43-51.098-27.019-53.815-3.588-2.717-13.326-9.356-38.141-4.982Z" fill="#2BD0D0"/><path d="M176.353 31.881s3.436 1.923 3.127 8.144c-.309 6.22-2.246 15.581-4.201 18.006-1.956 2.425-8.796 3.375-8.796 3.375s3.731 8.818 6.508 11.094c2.777 2.275-2.79 10.659-8.205 7.908-5.415-2.75-11.692-9.66-11.692-9.66s4.515-8.32 2.989-12.699c-1.527-4.38-7.357-19.748-2.989-23.947 4.368-4.198 13.786-10.215 23.259-2.22Z" fill="url(#q)"/><path opacity=".25" d="m146.389 100.956-2.889 36.332 8.825 4.668 7.175-1.262-8.952-11.093-4.159-28.645ZM193.5 98.956s11.939 28.79 6.647 39l-4.078-.794-2.569-38.206Z" fill="#fff"/><path d="M160.594 146.653s-4.629 3.85-2.563 6.844c2.066 2.995 4.533 2.909 6.59 1.57 2.057-1.339 6.097-4.517 10.91-3.058 4.814 1.458 5.982 2.387 5.982 2.387s2.536-1.545 1.878-3.093c-.658-1.549-5.692-6.566-7.151-7.217-1.459-.65-7.515 1.348-7.515 1.348s-4.449-1.172-8.131 1.219Z" fill="url(#r)"/><path d="M201.294 138.021s-4.257.507-5.332 3.305c-1.075 2.799-1.462 3.14-1.462 3.14s2.404.46 3.404-.843c.999-1.302 2.039-.755 2.039-.755l-.297 1.671s6.531.985 9.482-.073c2.95-1.059 4.217-2.302 4.217-2.302l1.155-2.826s-2.786-2.021-4.888-2.334c-2.102-.313-8.318 1.017-8.318 1.017Z" fill="url(#s)"/><path d="M223.906 167.956s14.829 11.354 13.511 26.712c-1.318 15.359-3.254 38.163-3.254 38.163s-5.98 2.532-9.943 0c-3.963-2.533-6.362-37.184-8.326-40.494-1.963-3.309-13.774-18.228-26.394-19.513l34.406-4.868Z" fill="#25233A"/><path d="M149.5 179.115s7.041 6.729 19.593 8.842c12.551 2.113 18.402 3.876 22.238 14.692 3.836 10.815 7.516 34.093 8.72 36.694 1.204 2.602 6.325 1.274 6.325 1.274s2.896-3.328 2.896-21.837c0-25.803 1.79-31.092-4.66-37.574-6.45-6.482-12.319-8.25-12.319-8.25l-42.793 6.159Z" fill="#3F3D56"/><path d="m199.5 240.956 1.235 9.465h2.312s14.894.791 15.361.45c.467-.342-.717-7.496-6.36-7.293-5.643.202-6.013-1.349-6.013-1.349l-6.535-1.273ZM225.5 233.727l2.345 9.229 25.625-3.474s.902-6.063-7.216-5.461c-2.142.156-3.738 1.643-6.313 1.657-2.576.013-5.042-1.029-6.341-2.722l-8.1.771Z" fill="#25233A"/><path d="m313.611 115.761-96.653 5.189a4.246 4.246 0 0 1-4.458-4.018V48.056a5.107 5.107 0 0 1 4.993-5.108l96.257-1.99a4.649 4.649 0 0 1 3.32 1.299 4.672 4.672 0 0 1 1.43 3.272v65.065a5.175 5.175 0 0 1-4.889 5.167Z" fill="#2BD0D0"/><path d="m319.61 115.761-96.656 5.19a4.246 4.246 0 0 1-4.454-4.023V48.056a5.098 5.098 0 0 1 4.989-5.108l96.27-1.991a4.66 4.66 0 0 1 4.741 4.568v65.069a5.175 5.175 0 0 1-4.89 5.167Z" fill="#2BD0D0"/><path d="m319.61 115.761-96.656 5.19a4.246 4.246 0 0 1-4.454-4.023V48.056a5.098 5.098 0 0 1 4.989-5.108l96.27-1.991a4.66 4.66 0 0 1 4.741 4.568v65.069a5.175 5.175 0 0 1-4.89 5.167Z" fill="url(#t)"/><path d="m290.345 142.334-24.711 2.622s-7.525-1.514-7.118-2.622c.407-1.109 8.276-2.177 8.276-2.177V95.475c-.068-.099-1.104-1.414-3.941-2.252a14.327 14.327 0 0 0-1.674-.388 4.954 4.954 0 0 1-1.403-.423c-1.688-.87.176-2.384 2.796-2.452.411-.014.821.01 1.227.072h19.005s7.195 2.019 7.543 12.094c.349 10.076 0 40.208 0 40.208Z" fill="#3A3054"/><path d="m270.5 142.428-4.714 2.528s-7.686-1.514-7.27-2.623c.416-1.108 8.467-2.176 8.467-2.176V95.472c-.097-.104-1.276-1.289-4.025-2.253a20.871 20.871 0 0 0-3.143-.811c-1.724-.87.18-2.384 2.856-2.452 2.279.302 6.766 2.736 7.057 4.123.291 1.388.772 48.349.772 48.349Z" fill="#51466B"/><path d="M179.5 235.956c-.881 1.001-1.291 1.371-.77.547a5.44 5.44 0 0 0 .77-.547Z" fill="url(#u)"/><defs><linearGradient id="a" x1="138.5" y1="235.956" x2="145.5" y2="235.956" gradientUnits="userSpaceOnUse"><stop stop-color="#183866"/><stop offset="1" stop-color="#1A7FC1"/></linearGradient><linearGradient id="b" x1="156.495" y1="234.957" x2="160.5" y2="234.957" gradientUnits="userSpaceOnUse"><stop/><stop offset=".99" stop-opacity=".01"/></linearGradient><linearGradient id="c" x1="179.488" y1="55.667" x2="187.017" y2="70.757" gradientUnits="userSpaceOnUse"><stop/><stop offset=".99" stop-opacity=".01"/></linearGradient><linearGradient id="d" x1="196.519" y1="-90.873" x2="166.194" y2="-90.945" gradientUnits="userSpaceOnUse"><stop/><stop offset=".99" stop-opacity=".01"/></linearGradient><linearGradient id="e" x1="241.752" y1="31.426" x2="233.922" y2="-3.077" gradientUnits="userSpaceOnUse"><stop/><stop offset=".99" stop-opacity=".01"/></linearGradient><linearGradient id="f" x1="202.424" y1="68.115" x2="200.44" y2="67.489" gradientUnits="userSpaceOnUse"><stop/><stop offset=".99" stop-opacity=".01"/></linearGradient><linearGradient id="g" x1="175.571" y1="35.77" x2="164.116" y2="48.42" gradientUnits="userSpaceOnUse"><stop/><stop offset=".99" stop-opacity=".01"/></linearGradient><linearGradient id="h" x1="355.736" y1="-12.921" x2="22.57" y2="-85.269" gradientUnits="userSpaceOnUse"><stop/><stop offset="1" stop-opacity=".01"/></linearGradient><linearGradient id="i" x1="144.721" y1="137.469" x2="322.719" y2="137.469" gradientUnits="userSpaceOnUse"><stop stop-color="#183866"/><stop offset="1" stop-color="#1A7FC1"/></linearGradient><linearGradient id="j" x1="52.369" y1="124.764" x2="53.387" y2="196.583" gradientUnits="userSpaceOnUse"><stop/><stop offset=".99" stop-opacity=".01"/></linearGradient><linearGradient id="k" x1="134.196" y1="142.238" x2="140.375" y2="173.873" gradientUnits="userSpaceOnUse"><stop/><stop offset=".99" stop-opacity=".01"/></linearGradient><linearGradient id="l" x1="161.829" y1="149.084" x2="161.428" y2="161.386" gradientUnits="userSpaceOnUse"><stop/><stop offset=".99" stop-opacity=".01"/></linearGradient><linearGradient id="m" x1="86.535" y1="-1.153" x2="56.771" y2="-5.326" gradientUnits="userSpaceOnUse"><stop/><stop offset=".99" stop-opacity=".01"/></linearGradient><linearGradient id="n" x1="90.887" y1="18.163" x2="67.221" y2="11.877" gradientUnits="userSpaceOnUse"><stop/><stop offset=".99" stop-opacity=".01"/></linearGradient><linearGradient id="o" x1="-129.445" y1="223.821" x2="-129.866" y2="285.73" gradientUnits="userSpaceOnUse"><stop/><stop offset=".99" stop-opacity=".01"/></linearGradient><linearGradient id="p" x1="62.707" y1="13.665" x2="59.185" y2="13.753" gradientUnits="userSpaceOnUse"><stop/><stop offset=".99" stop-opacity=".01"/></linearGradient><linearGradient id="q" x1="151.489" y1="80.962" x2="179.499" y2="80.962" gradientUnits="userSpaceOnUse"><stop stop-color="#ECC4D7"/><stop offset=".42" stop-color="#EFD4D1"/><stop offset="1" stop-color="#F2EAC9"/></linearGradient><linearGradient id="r" x1="183.248" y1="130.362" x2="209.248" y2="130.362" gradientUnits="userSpaceOnUse"><stop stop-color="#ECC4D7"/><stop offset=".42" stop-color="#EFD4D1"/><stop offset="1" stop-color="#F2EAC9"/></linearGradient><linearGradient id="s" x1="219.361" y1="134.191" x2="239.361" y2="134.191" gradientUnits="userSpaceOnUse"><stop stop-color="#ECC4D7"/><stop offset=".42" stop-color="#EFD4D1"/><stop offset="1" stop-color="#F2EAC9"/></linearGradient><linearGradient id="t" x1="306.274" y1="109.438" x2="222.69" y2="206.81" gradientUnits="userSpaceOnUse"><stop stop-color="#362958" stop-opacity=".501"/><stop offset="1" stop-color="#34313D" stop-opacity=".01"/></linearGradient><linearGradient id="u" x1="218.625" y1="-106.879" x2="217.459" y2="-107.31" gradientUnits="userSpaceOnUse"><stop/><stop offset=".99" stop-opacity=".01"/></linearGradient></defs></svg>